PathFileType   4   (X/Y/Z)																																																																																																																							
DataRate	CameraRate	NumFrames	NumMarkers	Units	OrigDataRate	OrigDataStartFrame	OrigNumFrames																																																																																																																
120	120	8	37	mm	120	110	125																																																																																																																
Frame#	Time	Sternum	R.Acromium	L.Acromium	Top.Head	R.ASIS	L.ASIS	V.Sacral	R.Thigh.Upper	R.Thigh.Front	R.Thigh.Rear	R.Knee.Lat	R.Knee.Med	R.Shank.Upper	R.Shank.Front	R.Shank.Rear	R.Ankle.Lat	R.Ankle.Med	R.Heel	R.Midfoot.Sup	R.Midfoot.Lat	R.Toe.Lat	R.Toe.Med	R.Toe.Tip	L.Thigh.Upper	L.Thigh.Front	L.Thigh.Rear	L.Knee.Lat	L.Knee.Med	L.Shank.Upper	L.Shank.Front	L.Shank.Rear	L.Ankle.Lat	L.Ankle.Med	L.Heel	L.Midfoot.Sup	L.Midfoot.Lat	L.Toe.Lat	L.Toe.Med	L.Toe.Tip																																																																															
 	 	X1	Y1	Z1	X2	Y2	Z2	X3	Y3	Z3	X4	Y4	Z4	X5	Y5	Z5	X6	Y6	Z6	X7	Y7	Z7	X8	Y8	Z8	X9	Y9	Z9	X10	Y10	Z10	X11	Y11	Z11	X12	Y12	Z12	X13	Y13	Z13	X14	Y14	Z14	X15	Y15	Z15	X16	Y16	Z16	X17	Y17	Z17	X18	Y18	Z18	X19	Y19	Z19	X20	Y20	Z20	X21	Y21	Z21	X22	Y22	Z22	X23	Y23	Z23	X24	Y24	Z24	X25	Y25	Z25	X26	Y26	Z26	X27	Y27	Z27	X28	Y28	Z28	X29	Y29	Z29	X30	Y30	Z30	X31	Y31	Z31	X32	Y32	Z32	X33	Y33	Z33	X34	Y34	Z34	X35	Y35	Z35	X36	Y36	Z36	X37	Y37	Z37	X38	Y38	Z38	X39	Y39	Z39	
																																																																																																																							
	110	1.05833	2352.663469	-0.001002095	1349.923259	2275.222829	-161.9453511	1413.512616	2277.966791	165.1979949	1413.328295	2371.7802	-10.08809499	1641.475718	2387.917661	-117.7896216	988.2378272	2394.228615	119.399185	981.3699187	2211.818803	-5.611229398	975.5191113	2331.814504	-173.4115572	639.2537137	2384.374282	-67.95180237	562.4298904	2299.866254	-162.9734513	508.8009035	2242.071292	-142.5943975	421.9367145	2237.335846	-8.355853302	403.9818164	2198.703684	-154.6508593	398.4973844	2266.686658	-93.81404015	335.7257971	2186.803488	-165.0122006	302.3878849	2092.722549	-136.9768135	-2.341885259	2105.916961	-37.22329306	10.48582076	2020.620227	-79.10633289	-27.6120589	2172.85065	-41.71858376	-21.16715793	2166.511634	-155.3841374	-41.87332431	2260.372153	-165.0174344	-70.7540297	2263.350191	-50.15543807	-57.00661163	2327.871789	-83.79364801	-58.88404018	2442.349706	178.8034865	695.1545787	2540.241383	95.03600439	688.5033768	2481.552853	161.7547942	580.8570668	2513.50789	144.5366564	437.5842056	2514.424284	15.87918741	438.8565797	2500.539957	162.4477689	406.8104694	2553.021008	100.5194763	353.935751	2484.083867	174.5177999	357.5775503	2523.29115	136.4325857	8.605373019	2526.32103	34.31683281	34.85503673	2445.198179	76.11439987	-25.53104888	2624.070234	48.15109198	11.09731831	2604.934168	152.6198727	7.479046366	2675.349821	163.716336	-4.263332085	2693.091853	55.50675189	-0.930459139	2744.135272	82.30973808	9.615608709
	111	1.06667	2361.723237	-0.001002095	1348.704373	2284.278816	-161.9453511	1412.289125	2287.022789	165.1979949	1412.104967	2380.82263	-10.08809499	1640.257968	2396.958491	-117.7896216	986.8695851	2403.260822	119.399185	979.9937629	2220.843812	-5.611229398	974.371854	2338.15295	-173.4115572	637.7907064	2389.91569	-67.95180237	560.4276093	2304.857745	-162.9734513	507.6751588	2246.167842	-142.5943975	421.4131143	2241.247026	-8.355853302	403.5081323	2202.59225	-154.6508593	398.3962005	2269.967163	-93.81404015	334.9724042	2189.766439	-165.0122006	302.4058409	2092.753314	-136.9768135	-1.403160787	2106.070728	-37.22329306	11.29680054	2020.534818	-79.10633289	-26.3799254	2172.792477	-41.71858376	-20.61419122	2166.361153	-155.3841374	-41.2918731	2260.091902	-165.0174344	-70.5910046	2263.131237	-50.15543807	-56.8570084	2327.643818	-83.79364801	-59.02225028	2451.92783	178.8034865	694.3293592	2549.841753	95.03600439	688.0140979	2491.522941	161.7547942	580.1670402	2523.969411	144.5366564	437.0046717	2524.881434	15.87918741	438.2801828	2512.876047	162.4477689	406.5124215	2566.961286	100.5194763	355.2797804	2497.944668	174.5177999	356.7958536	2547.885391	136.4325857	9.197355802	2550.105064	34.31683281	35.52790973	2470.395026	76.11439987	-26.27999834	2648.639491	48.15109198	13.28968756	2629.56562	152.6198727	9.356707128	2700.165134	163.716336	-1.22422813	2717.849862	55.50675189	2.400430234	2768.712646	82.30973808	13.78582812
	112	1.075	2370.82658	-0.001002095	1347.485232	2293.373536	-161.9453511	1411.05948	2296.117534	165.1979949	1410.875694	2389.886431	-10.08809499	1639.041415	2406.065009	-117.7896216	985.4842379	2412.358061	119.399185	978.599922	2229.933634	-5.611229398	973.2240438	2344.630971	-173.4115572	636.3494912	2395.617653	-67.95180237	558.4727405	2310.036545	-162.9734513	506.5733298	2250.487133	-142.5943975	420.9023742	2245.38755	-8.355853302	403.047485	2206.682755	-154.6508593	398.3230055	2273.419001	-93.81404015	334.2275276	2192.896096	-165.0122006	302.4659317	2092.844724	-136.9768135	-0.356093415	2106.28868	-37.22329306	12.20983642	2020.494279	-79.10633289	-24.98704887	2172.779632	-41.71858376	-20.00610995	2166.241823	-155.3841374	-40.65037089	2259.820322	-165.0174344	-70.43219088	2262.930401	-50.15543807	-56.71404148	2327.430965	-83.79364801	-59.21174511	2461.447354	178.8034865	693.4190452	2559.378826	95.03600439	687.382025	2501.36669	161.7547942	579.3696939	2534.219814	144.5366564	436.3000976	2535.128209	15.87918741	437.578195	2524.898387	162.4477689	406.1351988	2580.456391	100.5194763	356.5035083	2511.424931	174.5177999	356.003879	2571.493087	136.4325857	10.01167067	2572.943048	34.31683281	36.39580659	2494.575963	76.11439987	-26.68440544	2672.205333	48.15109198	15.56078304	2653.192752	152.6198727	11.34146405	2723.943374	163.716336	1.823216231	2741.571605	55.50675189	5.713361694	2792.257456	82.30973808	17.86221451
	113	1.08333	2379.976764	-0.001002095	1346.27254	2302.510285	-161.9453511	1409.830416	2305.254321	165.1979949	1409.64721	2398.974991	-10.08809499	1637.832745	2415.241446	-117.7896216	984.0927622	2421.524813	119.399185	977.1996053	2239.093008	-5.611229398	972.0802117	2351.260258	-173.4115572	634.9359272	2401.493525	-67.95180237	556.5710817	2315.415877	-162.9734513	505.4994303	2255.043023	-142.5943975	420.4067543	2249.771484	-8.355853302	402.601876	2210.98742	-154.6508593	398.2822551	2277.051161	-93.81404015	333.4938373	2196.20119	-165.0122006	302.5742724	2092.99515	-136.9768135	0.812828529	2106.569506	-37.22329306	13.23777893	2020.495054	-79.10633289	-23.41095271	2172.807392	-41.71858376	-19.33789227	2166.146637	-155.3841374	-39.9428138	2259.545941	-165.0174344	-70.28193651	2262.73774	-50.15543807	-56.58257038	2327.222269	-83.79364801	-59.46472469	2470.918996	178.8034865	692.4323727	2568.863877	95.03600439	686.6169621	2511.096294	161.7547942	578.4736407	2544.273064	144.5366564	435.478749	2545.178565	15.87918741	436.7588986	2536.605697	162.4477689	405.6761719	2593.495798	100.5194763	357.577181	2524.503601	174.5177999	355.1962501	2593.979633	136.4325857	10.96976576	2594.709943	34.31683281	37.38361939	2517.602505	76.11439987	-26.8285012	2694.637962	48.15109198	17.8402376	2675.684817	152.6198727	13.36148536	2746.55891	163.716336	4.811009361	2764.132331	55.50675189	8.941700176	2814.647422	82.30973808	21.78209485
	114	1.09167	2389.176926	-0.001002095	1345.073629	2311.692047	-161.9453511	1408.609071	2314.436136	165.1979949	1408.42666	2408.090729	-10.08809499	1636.639323	2424.492745	-117.7896216	982.7060434	2430.766242	119.399185	975.8039033	2248.327299	-5.611229398	970.9455404	2358.051558	-173.4115572	633.5559959	2407.555335	-67.95180237	554.7282966	2321.007385	-162.9734513	504.4577558	2259.847362	-142.5943975	419.9290824	2254.410798	-8.355853302	402.1738975	2215.516953	-154.6508593	398.2788875	2280.8713	-93.81404015	332.7749464	2199.689441	-165.0122006	302.7375854	2093.203655	-136.9768135	2.117836697	2106.912501	-37.22329306	14.39424006	2020.534587	-79.10633289	-21.62817154	2172.871357	-41.71858376	-18.60380846	2166.068904	-155.3841374	-39.16238543	2259.257123	-165.0174344	-70.14380066	2262.543161	-50.15543807	-56.46673326	2327.006319	-83.79364801	-59.79276579	2480.354596	178.8034865	691.379189	2578.309225	95.03600439	685.7303372	2520.725617	161.7547942	577.4889412	2554.145495	144.5366564	434.5506718	2555.048818	15.87918741	435.8323593	2547.998621	162.4477689	405.1319749	2606.072809	100.5194763	358.4695135	2537.161645	174.5177999	354.3654193	2615.217165	136.4325857	11.98240671	2615.287245	34.31683281	38.40626156	2539.341255	76.11439987	-26.80251845	2715.813898	48.15109198	20.04036476	2696.917276	152.6198727	15.32882901	2767.891177	163.716336	7.650746093	2785.412462	55.50675189	11.99727626	2835.765795	82.30973808	25.45803161
	115	1.1	2398.42994	-0.001002095	1343.896222	2320.921386	-161.9453511	1407.402781	2323.665544	165.1979949	1407.221392	2417.235075	-10.08809499	1635.468945	2433.824222	-117.7896216	981.3344041	2440.087843	119.399185	974.4233007	2257.64214	-5.611229398	969.8258091	2365.014237	-173.4115572	632.2155807	2413.813389	-67.95180237	552.9497436	2326.820772	-162.9734513	503.4526762	2264.909703	-142.5943975	419.4725327	2259.315088	-8.355853302	401.7665141	2220.280356	-154.6508593	398.317991	2284.885717	-93.81404015	332.0752233	2203.367589	-165.0122006	302.9628188	2093.470724	-136.9768135	3.573215013	2107.318263	-37.22329306	15.69295912	2020.612266	-79.10633289	-19.61535424	2172.968211	-41.71858376	-17.79760871	2166.003146	-155.3841374	-38.30166476	2258.943066	-165.0174344	-70.02016843	2262.337324	-50.15543807	-56.36955575	2326.772119	-83.79364801	-60.20603872	2489.766547	178.8034865	690.2701541	2587.727661	95.03600439	684.734903	2530.269618	161.7547942	576.4268007	2563.855238	144.5366564	433.527384	2564.757074	15.87918741	434.8101182	2559.07968	162.4477689	404.4986049	2618.184937	100.5194763	359.1492368	2549.383046	174.5177999	353.5019531	2635.091376	136.4325857	12.95405094	2634.569309	34.31683281	39.37284089	2559.6703	76.11439987	-26.69817252	2735.623389	48.15109198	22.06000082	2716.779092	152.6198727	17.14335856	2787.832253	163.716336	10.23713481	2805.305262	55.50675189	14.77384469	2855.509318	82.30973808	28.78108843
	116	1.10833	2407.738211	-0.001002095	1342.748041	2330.200292	-161.9453511	1406.218743	2332.944533	165.1979949	1406.038623	2426.408482	-10.08809499	1634.32943	2443.241068	-117.7896216	979.9871186	2449.494931	119.399185	973.0671834	2267.042922	-5.611229398	968.7271459	2372.155734	-173.4115572	630.9201446	2420.275731	-67.95180237	551.2401845	2332.863309	-162.9734513	502.4883271	2270.236841	-142.5943975	419.0403164	2264.491122	-8.355853302	401.3827535	2225.284552	-154.6508593	398.4043818	2289.099139	-93.81404015	331.3994912	2207.241224	-165.0122006	303.2566606	2093.798701	-136.9768135	5.192489871	2107.789112	-37.22329306	17.14702648	2020.730106	-79.10633289	-17.35062728	2173.096266	-41.71858376	-16.91275053	2165.945794	-155.3841374	-37.35288739	2258.594647	-165.0174344	-69.91179007	2262.112391	-50.15543807	-56.29247691	2326.509798	-83.79364801	-60.71234891	2499.167137	178.8034865	689.1163225	2597.131803	95.03600439	683.6442976	2539.743676	161.7547942	575.2991339	2573.421517	144.5366564	432.4214234	2574.322525	15.87918741	433.7047394	2569.853592	162.4477689	403.7719402	2629.83455	100.5194763	359.5873135	2561.156279	174.5177999	352.5953835	2653.509139	136.4325857	13.7890367	2652.470436	34.31683281	40.1925613	2578.486989	76.11439987	-26.60320776	2753.978364	48.15109198	23.79150091	2735.180673	152.6198727	18.69957507	2806.29507	163.716336	12.45536838	2823.72507	55.50675189	17.15460752	2873.7965	82.30973808	31.62879381
	117	1.11667	2417.103409	-0.001002095	1341.636308	2339.52997	-161.9453511	1405.063594	2342.274312	165.1979949	1404.885011	2435.610447	-10.08809499	1633.228104	2452.74775	-117.7896216	978.6719828	2458.99204	119.399185	971.7434081	2276.534205	-5.611229398	967.6556216	2379.480899	-173.4115572	629.6743587	2426.947464	-67.95180237	549.6034195	2339.139153	-162.9734513	501.5682702	2275.832134	-142.5943975	418.6353673	2269.94216	-8.355853302	401.025398	2230.533773	-154.6508593	398.5421878	2293.514263	-93.81404015	330.7526992	2211.314338	-165.0122006	303.6250456	2094.191849	-136.9768135	6.98759297	2108.32913	-37.22329306	18.76807764	2020.893036	-79.10633289	-14.81509243	2173.255653	-41.71858376	-15.94257371	2165.895566	-155.3841374	-36.30817143	2258.205036	-165.0174344	-69.81718457	2261.862513	-50.15543807	-56.23472973	2326.211114	-83.79364801	-61.31595573	2508.567886	178.8034865	687.9286614	2606.533438	95.03600439	682.4725284	2549.162887	161.7547942	574.1180566	2582.863906	144.5366564	431.2458112	2583.764705	15.87918741	432.5292734	2580.327833	162.4477689	402.9485541	2641.029639	100.5194763	359.7595808	2572.476077	174.5177999	351.6354648	2670.406406	136.4325857	14.39898672	2668.932207	34.31683281	40.78177945	2595.716641	76.11439987	-26.59556424	2770.820288	48.15109198	25.13026941	2752.061804	152.6198727	19.89575181	2823.221566	163.716336	14.19172589	2840.61538	55.50675189	19.02318267	2890.575458	82.30973808	33.87716454
